<?xml version="1.0" encoding="UTF-8" standalone="no"?>
<svg
   viewBox="0 0 20 19.500299"
   version="1.1"
   id="svg1"
   sodipodi:docname="github.svg"
   width="20"
   height="19.500299"
   inkscape:version="1.3 (0e150ed6c4, 2023-07-21)"
   xmlns:inkscape="http://www.inkscape.org/namespaces/inkscape"
   xmlns:sodipodi="http://sodipodi.sourceforge.net/DTD/sodipodi-0.dtd"
   xmlns="http://www.w3.org/2000/svg"
   xmlns:svg="http://www.w3.org/2000/svg">
  <defs
     id="defs1" />
  <sodipodi:namedview
     id="namedview1"
     pagecolor="#ffffff"
     bordercolor="#000000"
     borderopacity="0.25"
     inkscape:showpageshadow="2"
     inkscape:pageopacity="0.0"
     inkscape:pagecheckerboard="0"
     inkscape:deskcolor="#d1d1d1"
     inkscape:zoom="1.4765625"
     inkscape:cx="248.21164"
     inkscape:cy="247.87302"
     inkscape:window-width="1920"
     inkscape:window-height="986"
     inkscape:window-x="-11"
     inkscape:window-y="-11"
     inkscape:window-maximized="1"
     inkscape:current-layer="svg1" />
  <!--!Font Awesome Free 6.5.2 by @fontawesome - https://fontawesome.com License - https://fontawesome.com/license/free Copyright 2024 Fonticons, Inc.-->
  <path
     d="m 6.6895161,15.701613 c 0,0.08065 -0.092742,0.145161 -0.2096774,0.145161 -0.1330645,0.0121 -0.2258064,-0.05242 -0.2258064,-0.145161 0,-0.08064 0.092742,-0.145161 0.2096774,-0.145161 0.1209677,-0.0121 0.2258064,0.05242 0.2258064,0.145161 z M 5.4354839,15.520161 c -0.028226,0.08064 0.052419,0.173387 0.1733871,0.197581 0.1048387,0.04032 0.2258064,0 0.25,-0.08065 0.024193,-0.08065 -0.052419,-0.173387 -0.1733871,-0.209678 -0.1048387,-0.02822 -0.2217742,0.0121 -0.25,0.09274 z m 1.782258,-0.06855 c -0.1169354,0.02823 -0.1975806,0.104839 -0.1854838,0.197581 0.012097,0.08064 0.1169354,0.133064 0.2379032,0.104838 C 7.3870968,15.7258 7.4677419,15.649192 7.4556452,15.568546 7.4435482,15.491936 7.3346774,15.439514 7.2177419,15.451611 Z M 9.8709677,0 C 4.2782258,0 0,4.245968 0,9.83871 c 0,4.471774 2.8145161,8.298387 6.8346774,9.645161 0.5161291,0.09274 0.6975807,-0.225806 0.6975807,-0.487903 0,-0.25 -0.012097,-1.629033 -0.012097,-2.475807 0,0 -2.8225807,0.604839 -3.4153226,-1.201613 0,0 -0.4596774,-1.173387 -1.1209677,-1.475806 0,0 -0.9233871,-0.633065 0.064516,-0.620968 0,0 1.0040323,0.08065 1.5564516,1.040323 0.8830645,1.556451 2.3629032,1.108871 2.9395161,0.842742 0.092742,-0.645162 0.3548387,-1.092742 0.6451613,-1.358871 C 5.9354836,13.495968 3.66129,13.169355 3.66129,9.290323 3.66129,8.181452 3.9677416,7.625 4.6129029,6.915323 4.5080645,6.653226 4.1653226,5.572581 4.7177419,4.177419 5.5604839,3.915323 7.5,5.266129 7.5,5.266129 8.3064516,5.040323 9.1733871,4.923387 10.032258,4.923387 c 0.858871,0 1.725807,0.116936 2.532258,0.342742 0,0 1.939516,-1.354839 2.782258,-1.08871 0.55242,1.399194 0.209678,2.475807 0.104839,2.737904 0.645161,0.713709 1.040322,1.270161 1.040322,2.375 0,3.891129 -2.375,4.201612 -4.629032,4.455645 0.370968,0.318548 0.685484,0.923387 0.685484,1.870967 0,1.358871 -0.0121,3.040323 -0.0121,3.370968 0,0.262097 0.185484,0.580645 0.697581,0.487903 C 17.266129,18.137097 20,14.310484 20,9.83871 20,4.245968 15.46371,0 9.8709677,0 Z M 3.9193548,13.907258 c -0.052419,0.04032 -0.040322,0.133065 0.028226,0.209677 0.064516,0.06452 0.1572581,0.09274 0.2096775,0.04032 0.052419,-0.04032 0.040323,-0.133064 -0.028226,-0.209677 -0.064516,-0.06452 -0.1572581,-0.09274 -0.2096775,-0.04032 z M 3.483871,13.580645 c -0.028226,0.05242 0.012097,0.116936 0.092742,0.157258 0.064516,0.04032 0.1451613,0.02823 0.1733871,-0.02823 0.028226,-0.05242 -0.012097,-0.116935 -0.092742,-0.157258 -0.080645,-0.02419 -0.1451613,-0.0121 -0.1733871,0.02823 z m 1.3064516,1.435484 c -0.064516,0.05242 -0.040323,0.173387 0.052419,0.25 0.092742,0.09274 0.2096775,0.104839 0.2620968,0.04032 0.052419,-0.05242 0.028226,-0.173387 -0.052419,-0.25 -0.08871,-0.09274 -0.2096775,-0.104839 -0.2620968,-0.04032 z M 4.3306452,14.423387 c -0.064516,0.04032 -0.064516,0.145161 0,0.237903 0.064516,0.09274 0.1733871,0.133065 0.2258064,0.09274 0.064516,-0.05242 0.064516,-0.157258 0,-0.25 C 4.5,14.41129 4.3951613,14.370968 4.3306452,14.423387 Z"
     id="path1"
     style="stroke-width:0.0403226" />
</svg>
